<?xml version="1.0" encoding="utf-8"?>
<!-- Generator: Adobe Illustrator 26.0.2, SVG Export Plug-In . SVG Version: 6.00 Build 0)  -->
<svg version="1.1" id="Layer_1" xmlns="http://www.w3.org/2000/svg" xmlns:xlink="http://www.w3.org/1999/xlink" x="0px" y="0px"
	 viewBox="0 0 1684 1004" style="enable-background:new 0 0 1684 1004;" xml:space="preserve">
<style type="text/css">
	.st0{fill:none;stroke:#3C4043;stroke-width:4;}
	.st1{fill-rule:evenodd;clip-rule:evenodd;fill:#3C4043;}
	.st2{fill-rule:evenodd;clip-rule:evenodd;fill:#FA4359;}
	.st3{fill-rule:evenodd;clip-rule:evenodd;fill:#4C7EF3;}
</style>
<desc>Created with Sketch.</desc>
<g id="html-lesson">
	<g id="html-lesson-image-copy-3">
		<g id="Group-2" transform="translate(140.000000, 138.000000)">
			<polyline id="Stroke-4" class="st0" points="20,412 20,161 1384,161 1384,412 			"/>
			<path id="Stroke-5" class="st0" d="M702,160.6V92"/>
			<g id="Group" transform="translate(271.000000, 286.000000)">
				<polyline id="Stroke-4-Copy" class="st0" points="0,73 0,36 794,36 794,73 				"/>
				<path id="Stroke-5-Copy" class="st0" d="M400,37V0"/>
			</g>
			
				<g id="Group-Copy-2" transform="translate(133.500000, 613.000000) rotate(-180.000000) translate(-133.500000, -613.000000) translate(17.000000, 576.000000)">
				<polyline id="Stroke-4-Copy_00000146486166774460486560000017271147563278357388_" class="st0" points="1,73.3 1,36 232.2,36 
					232.2,73.3 				"/>
				<path id="Stroke-5-Copy_00000135656103056646217340000004842202711411719848_" class="st0" d="M117,36.6V0"/>
			</g>
			
				<g id="Group-Copy-3" transform="translate(1232.500000, 613.500000) rotate(-180.000000) translate(-1232.500000, -613.500000) translate(1087.000000, 577.000000)">
				<polyline id="Stroke-4-Copy_00000182494253110892997000000018237867754792074643_" class="st0" points="0,73 0,36 291,36 
					291,73 				"/>
				<path id="Stroke-5-Copy_00000069367168754379422600000012178828396478850992_" class="st0" d="M146.5,37V0"/>
			</g>
			<path id="element" class="st1" d="M618.4,14c-2.1,0-3.8,0.7-5.1,2.2s-2.1,3.5-2.3,6h14.1c0-2.7-0.6-4.7-1.8-6.1
				S620.5,14,618.4,14z M619.2,38.6c-3.9,0-7-1.2-9.2-3.7s-3.4-5.9-3.4-10.2c0-4.2,1.1-7.5,3.2-10.1s5-3.9,8.5-3.9
				c3.3,0,6,1.1,7.9,3.4s2.9,5.3,2.9,9.1c0,0.2,0,0.6,0,1.1s0,0.9,0,1.1h-18.4c0,3,0.8,5.4,2.4,7.1s3.6,2.6,6.1,2.6
				c2.8,0,5.7-0.7,8.5-2.2l0.6,3.3C625.8,37.7,622.7,38.6,619.2,38.6z M642.2,38.5c-2.6,0-4.4-0.7-5.5-2.1s-1.6-3.8-1.6-7.3V0.8
				l4.1-0.2v26.9c0,1.1,0,2,0,2.7s0.1,1.3,0.2,2s0.2,1.1,0.4,1.5s0.4,0.6,0.7,0.9s0.7,0.4,1.1,0.5s1,0.1,1.6,0.1
				c0.5,0,1.5-0.1,3.1-0.3l0.2,3.2C644.7,38.3,643.3,38.5,642.2,38.5z M659.4,14c-2.1,0-3.8,0.7-5.1,2.2s-2.1,3.5-2.3,6h14.1
				c0-2.7-0.6-4.7-1.8-6.1S661.5,14,659.4,14z M660.2,38.6c-3.9,0-7-1.2-9.2-3.7s-3.4-5.9-3.4-10.2c0-4.2,1.1-7.5,3.2-10.1
				s5-3.9,8.5-3.9c3.3,0,6,1.1,7.9,3.4s2.9,5.3,2.9,9.1c0,0.2,0,0.6,0,1.1s0,0.9,0,1.1h-18.4c0,3,0.8,5.4,2.4,7.1s3.6,2.6,6.1,2.6
				c2.8,0,5.7-0.7,8.5-2.2l0.6,3.3C666.8,37.7,663.7,38.6,660.2,38.6z M709.9,38V24.1c0-1.3,0-2.4-0.1-3.3s-0.2-1.8-0.4-2.7
				s-0.5-1.6-0.9-2.2c-0.4-0.5-0.9-1-1.5-1.3s-1.4-0.5-2.3-0.5c-1.8,0-3.3,0.5-4.6,1.4s-2.2,2.3-2.7,4.1c-0.1,1.2-0.2,2.4-0.2,3.8
				V38h-4.1V23.6c0-1.2,0-2.3-0.1-3.1s-0.2-1.7-0.5-2.6s-0.5-1.5-0.9-2s-0.9-0.9-1.5-1.2s-1.4-0.5-2.3-0.5c-2,0-3.6,0.5-4.9,1.5
				s-2.2,2.3-2.7,4c-0.1,1.3-0.2,2.6-0.2,4.1V38H676c0-16.7,0-25.7,0-26.8h3.4l0.5,3.8c0.8-1.2,2-2.3,3.5-3.1s3.2-1.3,5.1-1.3
				c1,0,1.9,0.1,2.7,0.3s1.5,0.5,2.1,0.8s1.1,0.7,1.5,1.1s0.8,0.9,1,1.3s0.4,0.9,0.6,1.3c2-3.2,4.9-4.8,9-4.8c3,0,5.2,0.9,6.6,2.6
				s2.1,4.2,2.1,7.6V38H709.9z M729.7,14c-2.1,0-3.8,0.7-5.1,2.2s-2.1,3.5-2.3,6h14.1c0-2.7-0.6-4.7-1.8-6.1S731.8,14,729.7,14z
				 M730.5,38.6c-3.9,0-7-1.2-9.2-3.7S718,29,718,24.7c0-4.2,1.1-7.5,3.2-10.1s5-3.9,8.5-3.9c3.3,0,6,1.1,7.9,3.4s2.9,5.3,2.9,9.1
				c0,0.2,0,0.6,0,1.1s0,0.9,0,1.1h-18.4c0,3,0.8,5.4,2.4,7.1s3.6,2.6,6.1,2.6c2.8,0,5.7-0.7,8.5-2.2l0.6,3.3
				C737.1,37.7,734,38.6,730.5,38.6z M746.3,38V11.2h3.4l0.5,3.8c1.1-1.3,2.4-2.4,4-3.2s3.3-1.2,5.1-1.2c3.1,0,5.4,0.9,6.9,2.6
				s2.2,4.4,2.2,8V38h-4.1c0-10.7,0-16.5,0-17.3c-0.1-2.3-0.5-3.9-1.4-5s-2.3-1.6-4.3-1.6c-2.1,0-3.8,0.5-5.2,1.5s-2.3,2.3-2.7,3.9
				c-0.2,1.1-0.2,2.3-0.2,3.8V38H746.3z M783.7,38.5c-2.6,0-4.5-0.6-5.6-1.9s-1.7-3.4-1.8-6.2V14.2h-4l0.2-2.7l3.8-0.3l1.4-6.1
				l2.7-0.1v6.2h7.4v3h-7.4v15.4c0,2,0.3,3.5,0.9,4.3s1.7,1.2,3.2,1.2c0.5,0,1.7-0.1,3.5-0.4l0.2,3.2
				C786.2,38.3,784.7,38.5,783.7,38.5z"/>
			<path id="_x3C_p_x3E_Hello-World_x21__x3C__x2F_p_x3E_" class="st2" d="M88.8,488.9l-66.4-31.8v-6.7l66.6-34.2v11l-53.7,26.3
				l53.6,24.5V488.9z M106.6,532V422.9h10.2l1.1,10.3c6.7-8,14.7-11.9,24-11.9c6.9,0,12.8,1.7,17.6,5.2s8.4,8.2,10.6,14.1
				s3.4,12.8,3.4,20.7c0,7.6-1.2,14.3-3.7,20.2s-6.2,10.5-11,13.9s-10.5,5.1-17,5.1c-4.9,0-9.5-1.1-13.8-3.3
				c-4.3-2.2-7.7-5.1-10.3-8.7c0.3,5,0.4,9.8,0.4,14.6v28.1L106.6,532z M140.3,490.8c3.5,0,6.7-0.8,9.4-2.4s5-3.8,6.7-6.6
				s3-5.9,3.9-9.5s1.3-7.4,1.3-11.5c0-8.7-1.8-15.8-5.5-21.4s-9-8.4-16-8.4c-14.7,0-22,9.5-22,28.5c0,10.3,1.7,18.1,5.2,23.3
				S132.4,490.8,140.3,490.8z M187.9,477.4l53.7-24.1l-53.5-26.8v-10.8l66.4,34.6v6.7l-66.6,31.3V477.4z M1151.3,488.9l-66.4-31.8
				v-6.7l66.6-34.2v11l-53.7,26.3l53.6,24.5V488.9z M1172.6,514.1h-10l46.9-116.8h10.1L1172.6,514.1z M1235.1,532V422.9h10.2
				l1.1,10.3c6.7-8,14.7-11.9,24-11.9c6.9,0,12.8,1.7,17.6,5.2s8.4,8.2,10.6,14.1s3.4,12.8,3.4,20.7c0,7.6-1.2,14.3-3.7,20.2
				s-6.2,10.5-11,13.9s-10.5,5.1-17,5.1c-4.9,0-9.5-1.1-13.8-3.3s-7.7-5.1-10.3-8.7c0.3,5,0.4,9.8,0.4,14.6v28.1L1235.1,532z
				 M1268.8,490.8c3.5,0,6.7-0.8,9.4-2.4s5-3.8,6.7-6.6s3-5.9,3.9-9.5s1.3-7.4,1.3-11.5c0-8.7-1.8-15.8-5.5-21.4s-9-8.4-16-8.4
				c-14.7,0-22,9.5-22,28.5c0,10.3,1.7,18.1,5.2,23.3S1260.9,490.8,1268.8,490.8z M1316.4,477.4l53.7-24.1l-53.5-26.8v-10.8
				l66.4,34.6v6.7l-66.6,31.3V477.4z"/>
			<path id="content" class="st1" d="M597.3,265.6c-3.9,0-7-1.3-9.2-3.8s-3.3-5.9-3.3-10c0-4.2,1.2-7.5,3.4-10.1s5.3-3.9,9.3-3.9
				c1.4,0,2.7,0.2,4,0.5s2.3,0.8,3.1,1.3l-1.1,3.2c-1.9-1-3.9-1.5-6-1.5c-2.6,0-4.6,0.9-6.1,2.8s-2.3,4.5-2.3,7.7
				c0,3.2,0.7,5.7,2.2,7.6s3.6,2.8,6.2,2.8c2.1,0,4.2-0.6,6.4-1.7l0.5,3.2C602.6,264.9,600.2,265.6,597.3,265.6z M612.6,251.7
				c0,3.2,0.7,5.7,2.1,7.6s3.5,2.9,6.2,2.9c2.7,0,4.7-1,6-2.9s2-4.5,2-7.7c0-3.3-0.7-5.8-2-7.7s-3.4-2.8-6.1-2.8
				c-2.7,0-4.7,1-6.1,2.9S612.6,248.4,612.6,251.7z M633.2,251.6c0,4.2-1.1,7.5-3.3,10.1s-5.3,3.9-9.2,3.9c-3.8,0-6.8-1.3-9-3.9
				s-3.3-5.9-3.3-10c0-4.2,1.1-7.5,3.3-10.1s5.3-3.9,9.2-3.9c3.8,0,6.8,1.3,9,3.9C632.1,244.1,633.2,247.5,633.2,251.6z M639,265
				v-26.8h3.4l0.5,3.8c1.1-1.3,2.4-2.4,4-3.2s3.3-1.2,5.1-1.2c3.1,0,5.4,0.9,6.9,2.6s2.2,4.4,2.2,8V265H657c0-10.7,0-16.5,0-17.3
				c-0.1-2.3-0.5-3.9-1.4-5s-2.3-1.6-4.3-1.6c-2.1,0-3.8,0.5-5.2,1.5s-2.3,2.3-2.7,3.9c-0.2,1.1-0.2,2.3-0.2,3.8V265H639z
				 M676.4,265.5c-2.6,0-4.5-0.6-5.6-1.9s-1.7-3.4-1.8-6.2v-16.1h-4l0.2-2.7l3.8-0.3l1.4-6.1l2.7-0.1v6.2h7.4v3h-7.4v15.4
				c0,2,0.3,3.5,0.9,4.3s1.7,1.2,3.2,1.2c0.5,0,1.7-0.1,3.5-0.4l0.2,3.2C678.9,265.3,677.4,265.5,676.4,265.5z M695.7,241
				c-2.1,0-3.8,0.7-5.1,2.2s-2.1,3.5-2.3,6h14.1c0-2.7-0.6-4.7-1.8-6.1S697.8,241,695.7,241z M696.5,265.6c-3.9,0-7-1.2-9.2-3.7
				s-3.4-5.9-3.4-10.2c0-4.2,1.1-7.5,3.2-10.1c2.2-2.6,5-3.9,8.5-3.9c3.3,0,6,1.1,7.9,3.4s2.9,5.3,2.9,9.1c0,0.2,0,0.6,0,1.1
				c0,0.5,0,0.9,0,1.1h-18.4c0,3,0.8,5.4,2.4,7.1s3.6,2.6,6.1,2.6c2.8,0,5.7-0.7,8.5-2.2l0.6,3.3C703.1,264.7,700,265.6,696.5,265.6
				z M712.3,265v-26.8h3.4l0.5,3.8c1.1-1.3,2.4-2.4,4-3.2s3.3-1.2,5.1-1.2c3.1,0,5.4,0.9,6.9,2.6s2.2,4.4,2.2,8V265h-4.1
				c0-10.7,0-16.5,0-17.3c-0.1-2.3-0.5-3.9-1.4-5s-2.3-1.6-4.3-1.6c-2.1,0-3.8,0.5-5.2,1.5s-2.3,2.3-2.7,3.9
				c-0.2,1.1-0.2,2.3-0.2,3.8V265H712.3z M749.7,265.5c-2.6,0-4.5-0.6-5.6-1.9s-1.7-3.4-1.8-6.2v-16.1h-4l0.2-2.7l3.8-0.3l1.4-6.1
				l2.7-0.1v6.2h7.4v3h-7.4v15.4c0,2,0.3,3.5,0.9,4.3s1.7,1.2,3.2,1.2c0.5,0,1.7-0.1,3.5-0.4l0.2,3.2
				C752.2,265.3,750.7,265.5,749.7,265.5z"/>
			<path id="opening-tag" class="st1" d="M4.9,716.7c0,3.2,0.7,5.7,2.1,7.6s3.5,2.9,6.2,2.9c2.7,0,4.7-1,6-2.9s2-4.5,2-7.7
				c0-3.3-0.7-5.8-2-7.7s-3.4-2.8-6.1-2.8c-2.7,0-4.7,1-6.1,2.9S4.9,713.4,4.9,716.7z M25.5,716.6c0,4.2-1.1,7.5-3.3,10.1
				s-5.3,3.9-9.2,3.9c-3.8,0-6.8-1.3-9-3.9s-3.3-5.9-3.3-10c0-4.2,1.1-7.5,3.3-10.1s5.3-3.9,9.2-3.9c3.8,0,6.8,1.3,9,3.9
				S25.5,712.5,25.5,716.6z M31.3,741.6v-38.4h3.6l0.4,3.6c2.3-2.8,5.2-4.2,8.4-4.2c2.4,0,4.5,0.6,6.2,1.8s2.9,2.9,3.7,5
				c0.8,2.1,1.2,4.5,1.2,7.3c0,2.7-0.4,5-1.3,7.1s-2.2,3.7-3.9,4.9s-3.7,1.8-6,1.8c-1.7,0-3.3-0.4-4.9-1.2s-2.7-1.8-3.6-3.1
				c0.1,1.8,0.1,3.5,0.1,5.1v9.9L31.3,741.6z M43.1,727.1c1.2,0,2.3-0.3,3.3-0.8s1.8-1.3,2.4-2.3s1.1-2.1,1.4-3.3s0.5-2.6,0.5-4
				c0-3.1-0.6-5.6-1.9-7.5s-3.2-2.9-5.6-2.9c-5.2,0-7.8,3.3-7.8,10c0,3.6,0.6,6.4,1.8,8.2S40.3,727.1,43.1,727.1z M71.1,706
				c-2.1,0-3.8,0.7-5.1,2.2s-2.1,3.5-2.3,6h14.1c0-2.7-0.6-4.7-1.8-6.1S73.2,706,71.1,706z M71.9,730.6c-3.9,0-7-1.2-9.2-3.7
				s-3.4-5.9-3.4-10.2c0-4.2,1.1-7.5,3.2-10.1c2.2-2.6,5-3.9,8.5-3.9c3.3,0,6,1.1,7.9,3.4s2.9,5.3,2.9,9.1c0,0.2,0,0.6,0,1.1
				s0,0.9,0,1.1H63.6c0,3,0.8,5.4,2.4,7.1s3.6,2.6,6.1,2.6c2.8,0,5.7-0.7,8.5-2.2l0.6,3.3C78.5,729.7,75.4,730.6,71.9,730.6z
				 M87.6,730v-26.8H91l0.5,3.8c1.1-1.3,2.4-2.4,4-3.2s3.3-1.2,5.1-1.2c3.1,0,5.4,0.9,6.9,2.6s2.2,4.4,2.2,8V730h-4.1
				c0-10.7,0-16.5,0-17.3c-0.1-2.3-0.5-3.9-1.4-5s-2.3-1.6-4.3-1.6c-2.1,0-3.8,0.5-5.2,1.5s-2.3,2.3-2.7,3.9
				c-0.2,1.1-0.2,2.3-0.2,3.8V730H87.6z M121.3,703.2V730h-4.1v-26.8H121.3z M121.3,693.5v4.8h-4.1v-4.8H121.3z M129,730v-26.8h3.4
				l0.5,3.8c1.1-1.3,2.4-2.4,4-3.2s3.3-1.2,5.1-1.2c3.1,0,5.4,0.9,6.9,2.6s2.2,4.4,2.2,8V730h-4.1c0-10.7,0-16.5,0-17.3
				c-0.1-2.3-0.5-3.9-1.4-5s-2.3-1.6-4.3-1.6c-2.1,0-3.8,0.5-5.2,1.5s-2.3,2.3-2.7,3.9c-0.2,1.1-0.2,2.3-0.2,3.8V730H129z
				 M168.3,726.5c1.4,0,2.6-0.2,3.6-0.7s1.9-1.2,2.4-2s1-1.8,1.3-2.9s0.4-2.2,0.4-3.5v-2c0-1.3-0.1-2.5-0.4-3.6s-0.7-2.1-1.4-3
				s-1.4-1.6-2.4-2s-2.2-0.7-3.6-0.7c-1.1,0-2.1,0.2-3.1,0.6s-1.7,1-2.3,1.7s-1.1,1.5-1.5,2.4s-0.7,1.9-0.9,2.8s-0.3,1.9-0.3,2.9
				c0,0.9,0.1,1.9,0.3,2.8s0.5,1.8,0.9,2.7s0.9,1.6,1.5,2.3s1.4,1.2,2.3,1.6S167.2,726.5,168.3,726.5z M162,742.3l-0.4-3.7h5
				c1.4,0,2.6-0.1,3.6-0.3s1.9-0.5,2.6-1s1.2-0.9,1.7-1.5s0.7-1.3,1-2.1s0.4-1.7,0.4-2.6s0.1-1.9,0.1-3.1v-2.4
				c-1,1.4-2.1,2.5-3.4,3.2s-2.9,1.1-4.9,1.1c-1.5,0-2.9-0.3-4.2-0.8s-2.4-1.2-3.3-2.1s-1.6-1.9-2.3-3.1s-1.1-2.4-1.4-3.6
				s-0.4-2.5-0.4-3.7c0-2,0.2-3.8,0.7-5.4s1.2-3.1,2.1-4.4s2.2-2.3,3.7-3.1s3.3-1.1,5.3-1.1c1.8,0,3.3,0.3,4.6,1s2.5,1.7,3.5,3.1
				v-3.6h4v24.9c0,1.1,0,2.1-0.1,3s-0.2,1.8-0.4,2.8s-0.5,1.9-0.9,2.7s-0.9,1.5-1.6,2.3s-1.5,1.4-2.4,1.8s-2.1,0.8-3.5,1.1
				s-2.9,0.4-4.7,0.4H162z M207.9,730.5c-2.6,0-4.5-0.6-5.6-1.9s-1.7-3.4-1.8-6.2v-16.1h-4l0.2-2.7l3.8-0.3l1.4-6.1l2.7-0.1v6.2h7.4
				v3h-7.4v15.4c0,2,0.3,3.5,0.9,4.3s1.7,1.2,3.2,1.2c0.5,0,1.7-0.1,3.5-0.4l0.2,3.2C210.4,730.3,208.9,730.5,207.9,730.5z
				 M224.4,727.3c1.9,0,3.6-0.5,5.1-1.6s2.4-2.5,2.8-4.3v-4.5c-0.1,0-0.6,0-1.5,0.1s-1.5,0.1-1.8,0.1c-3.5,0.3-6,0.9-7.4,1.7
				s-2.1,2.2-2.1,4.1c0,1.4,0.4,2.5,1.3,3.2S223,727.3,224.4,727.3z M233.3,730c-0.2-1-0.5-2.2-0.7-3.4c-1.5,1.5-2.9,2.5-4.2,3.1
				s-2.8,0.9-4.6,0.9c-2.5,0-4.5-0.7-6-2s-2.3-3.2-2.3-5.7c0-2.7,1-4.8,3.1-6.1s5.1-2.1,9-2.5c0.5,0,1.3-0.1,2.4-0.2
				s1.9-0.2,2.4-0.2v-2.4c0-1.9-0.4-3.3-1.3-4.2s-2.3-1.4-4.2-1.4c-2.6,0-5.3,0.7-8,2c-0.1-0.2-0.3-0.8-0.6-1.7s-0.5-1.4-0.5-1.5
				c1.2-0.7,2.6-1.2,4.2-1.6s3.3-0.6,5-0.6c3.3,0,5.7,0.7,7.2,2.2s2.2,3.9,2.2,7.4V730H233.3z M253.9,726.5c1.4,0,2.6-0.2,3.6-0.7
				c1-0.5,1.9-1.2,2.4-2s1-1.8,1.3-2.9s0.4-2.2,0.4-3.5v-2c0-1.3-0.1-2.5-0.4-3.6s-0.7-2.1-1.4-3s-1.4-1.6-2.4-2s-2.2-0.7-3.6-0.7
				c-1.1,0-2.1,0.2-3.1,0.6s-1.7,1-2.3,1.7s-1.1,1.5-1.5,2.4s-0.7,1.9-0.9,2.8s-0.3,1.9-0.3,2.9c0,0.9,0.1,1.9,0.3,2.8
				s0.5,1.8,0.9,2.7s0.9,1.6,1.5,2.3s1.4,1.2,2.3,1.6S252.8,726.5,253.9,726.5z M247.6,742.3l-0.4-3.7h5c1.4,0,2.6-0.1,3.6-0.3
				s1.9-0.5,2.6-1s1.2-0.9,1.7-1.5s0.7-1.3,1-2.1s0.4-1.7,0.4-2.6s0.1-1.9,0.1-3.1v-2.4c-1,1.4-2.1,2.5-3.4,3.2s-2.9,1.1-4.9,1.1
				c-1.5,0-2.9-0.3-4.2-0.8s-2.4-1.2-3.3-2.1s-1.6-1.9-2.3-3.1s-1.1-2.4-1.4-3.6s-0.4-2.5-0.4-3.7c0-2,0.2-3.8,0.7-5.4
				s1.2-3.1,2.1-4.4s2.2-2.3,3.7-3.1s3.3-1.1,5.3-1.1c1.8,0,3.3,0.3,4.6,1s2.5,1.7,3.5,3.1v-3.6h4v24.9c0,1.1,0,2.1-0.1,3
				s-0.2,1.8-0.4,2.8s-0.5,1.9-0.9,2.7s-0.9,1.5-1.6,2.3s-1.5,1.4-2.4,1.8s-2.1,0.8-3.5,1.1c-1.4,0.3-2.9,0.4-4.7,0.4H247.6z"/>
			<path id="closing-tag" class="st1" d="M1124.8,730.6c-3.9,0-7-1.3-9.2-3.8s-3.3-5.9-3.3-10c0-4.2,1.2-7.5,3.4-10.1
				s5.3-3.9,9.3-3.9c1.4,0,2.7,0.2,4,0.5s2.3,0.8,3.1,1.3l-1.1,3.2c-1.9-1-3.9-1.5-6-1.5c-2.6,0-4.6,0.9-6.1,2.8s-2.3,4.5-2.3,7.7
				c0,3.2,0.7,5.7,2.2,7.6s3.6,2.8,6.2,2.8c2.1,0,4.2-0.6,6.4-1.7l0.5,3.2C1130,729.9,1127.6,730.6,1124.8,730.6z M1144.3,730.5
				c-2.6,0-4.4-0.7-5.5-2.1s-1.6-3.8-1.6-7.3v-28.3l4.1-0.2v26.9c0,1.1,0,2,0,2.7s0.1,1.3,0.2,2s0.2,1.1,0.4,1.5s0.4,0.6,0.7,0.9
				s0.7,0.4,1.1,0.5s1,0.1,1.6,0.1c0.5,0,1.5-0.1,3.1-0.3l0.2,3.2C1146.8,730.3,1145.4,730.5,1144.3,730.5z M1153.9,716.7
				c0,3.2,0.7,5.7,2.1,7.6s3.5,2.9,6.2,2.9c2.7,0,4.7-1,6-2.9s2-4.5,2-7.7c0-3.3-0.7-5.8-2-7.7s-3.4-2.8-6.1-2.8
				c-2.7,0-4.7,1-6.1,2.9S1153.9,713.4,1153.9,716.7z M1174.5,716.6c0,4.2-1.1,7.5-3.3,10.1s-5.3,3.9-9.2,3.9c-3.8,0-6.8-1.3-9-3.9
				s-3.3-5.9-3.3-10c0-4.2,1.1-7.5,3.3-10.1s5.3-3.9,9.2-3.9c3.8,0,6.8,1.3,9,3.9S1174.5,712.5,1174.5,716.6z M1188.3,730.6
				c-1.8,0-3.5-0.2-5-0.6s-2.8-0.9-3.7-1.5l0.5-3.4c2.7,1.4,5.4,2.2,8,2.2c4,0,6-1.4,6.1-4.2c0-1.2-0.4-2.1-1.3-2.8s-2.5-1.4-5-2.3
				l-2-0.7c-2.3-0.8-4-1.7-5-2.9s-1.5-2.6-1.5-4.3c0-2.1,0.8-3.8,2.5-5.2s4-2.1,6.9-2.1c3,0,5.8,0.6,8.3,1.8l-1.2,3.1
				c-2.5-1-4.9-1.6-7.1-1.6c-1.7,0-3,0.3-4,1s-1.5,1.6-1.5,2.8c0,1,0.3,1.8,1,2.4s2.1,1.2,4.2,1.9c0.5,0.2,1.2,0.4,2,0.7
				c2.7,0.9,4.6,1.9,5.7,3.1s1.7,2.8,1.7,4.8c0,2.5-0.9,4.4-2.7,5.7S1191.2,730.6,1188.3,730.6z M1208.3,703.2V730h-4.1v-26.8
				H1208.3z M1208.3,693.5v4.8h-4.1v-4.8H1208.3z M1216,730v-26.8h3.4l0.5,3.8c1.1-1.3,2.4-2.4,4-3.2s3.3-1.2,5.1-1.2
				c3.1,0,5.4,0.9,6.9,2.6s2.2,4.4,2.2,8V730h-4.1c0-10.7,0-16.5,0-17.3c-0.1-2.3-0.5-3.9-1.4-5s-2.3-1.6-4.3-1.6
				c-2.1,0-3.8,0.5-5.2,1.5s-2.3,2.3-2.7,3.9c-0.2,1.1-0.2,2.3-0.2,3.8V730H1216z M1255.3,726.5c1.4,0,2.6-0.2,3.6-0.7
				s1.9-1.2,2.4-2s1-1.8,1.3-2.9s0.4-2.2,0.4-3.5v-2c0-1.3-0.1-2.5-0.4-3.6s-0.7-2.1-1.4-3s-1.4-1.6-2.4-2s-2.2-0.7-3.6-0.7
				c-1.1,0-2.1,0.2-3.1,0.6s-1.7,1-2.3,1.7s-1.1,1.5-1.5,2.4s-0.7,1.9-0.9,2.8s-0.3,1.9-0.3,2.9c0,0.9,0.1,1.9,0.3,2.8
				s0.5,1.8,0.9,2.7s0.9,1.6,1.5,2.3s1.4,1.2,2.3,1.6S1254.2,726.5,1255.3,726.5z M1249,742.3l-0.4-3.7h5c1.4,0,2.6-0.1,3.6-0.3
				s1.9-0.5,2.6-1s1.2-0.9,1.7-1.5s0.7-1.3,1-2.1s0.4-1.7,0.4-2.6s0.1-1.9,0.1-3.1v-2.4c-1,1.4-2.1,2.5-3.4,3.2s-2.9,1.1-4.9,1.1
				c-1.5,0-2.9-0.3-4.2-0.8s-2.4-1.2-3.3-2.1s-1.6-1.9-2.3-3.1s-1.1-2.4-1.4-3.6s-0.4-2.5-0.4-3.7c0-2,0.2-3.8,0.7-5.4
				s1.2-3.1,2.1-4.4s2.2-2.3,3.7-3.1s3.3-1.1,5.3-1.1c1.8,0,3.3,0.3,4.6,1s2.5,1.7,3.5,3.1v-3.6h4v24.9c0,1.1,0,2.1-0.1,3
				s-0.2,1.8-0.4,2.8s-0.5,1.9-0.9,2.7s-0.9,1.5-1.6,2.3s-1.5,1.4-2.4,1.8s-2.1,0.8-3.5,1.1s-2.9,0.4-4.7,0.4H1249z M1294.9,730.5
				c-2.6,0-4.5-0.6-5.6-1.9s-1.7-3.4-1.8-6.2v-16.1h-4l0.2-2.7l3.8-0.3l1.4-6.1l2.7-0.1v6.2h7.4v3h-7.4v15.4c0,2,0.3,3.5,0.9,4.3
				s1.7,1.2,3.2,1.2c0.5,0,1.7-0.1,3.5-0.4l0.2,3.2C1297.4,730.3,1295.9,730.5,1294.9,730.5z M1311.4,727.3c1.9,0,3.6-0.5,5.1-1.6
				s2.4-2.5,2.8-4.3v-4.5c-0.1,0-0.6,0-1.5,0.1s-1.5,0.1-1.8,0.1c-3.5,0.3-6,0.9-7.4,1.7s-2.1,2.2-2.1,4.1c0,1.4,0.4,2.5,1.3,3.2
				S1310,727.3,1311.4,727.3z M1320.3,730c-0.2-1-0.5-2.2-0.7-3.4c-1.5,1.5-2.9,2.5-4.2,3.1s-2.8,0.9-4.6,0.9c-2.5,0-4.5-0.7-6-2
				s-2.3-3.2-2.3-5.7c0-2.7,1-4.8,3.1-6.1s5.1-2.1,9-2.5c0.5,0,1.3-0.1,2.4-0.2s1.9-0.2,2.4-0.2v-2.4c0-1.9-0.4-3.3-1.3-4.2
				s-2.3-1.4-4.2-1.4c-2.6,0-5.3,0.7-8,2c-0.1-0.2-0.3-0.8-0.6-1.7s-0.5-1.4-0.5-1.5c1.2-0.7,2.6-1.2,4.2-1.6s3.3-0.6,5-0.6
				c3.3,0,5.7,0.7,7.2,2.2s2.2,3.9,2.2,7.4V730H1320.3z M1340.9,726.5c1.4,0,2.6-0.2,3.6-0.7s1.9-1.2,2.4-2s1-1.8,1.3-2.9
				s0.4-2.2,0.4-3.5v-2c0-1.3-0.1-2.5-0.4-3.6s-0.7-2.1-1.4-3s-1.4-1.6-2.4-2s-2.2-0.7-3.6-0.7c-1.1,0-2.1,0.2-3.1,0.6
				s-1.7,1-2.3,1.7s-1.1,1.5-1.5,2.4s-0.7,1.9-0.9,2.8s-0.3,1.9-0.3,2.9c0,0.9,0.1,1.9,0.3,2.8s0.5,1.8,0.9,2.7s0.9,1.6,1.5,2.3
				s1.4,1.2,2.3,1.6S1339.8,726.5,1340.9,726.5z M1334.6,742.3l-0.4-3.7h5c1.4,0,2.6-0.1,3.6-0.3s1.9-0.5,2.6-1s1.2-0.9,1.7-1.5
				s0.7-1.3,1-2.1s0.4-1.7,0.4-2.6s0.1-1.9,0.1-3.1v-2.4c-1,1.4-2.1,2.5-3.4,3.2s-2.9,1.1-4.9,1.1c-1.5,0-2.9-0.3-4.2-0.8
				s-2.4-1.2-3.3-2.1s-1.6-1.9-2.3-3.1s-1.1-2.4-1.4-3.6s-0.4-2.5-0.4-3.7c0-2,0.2-3.8,0.7-5.4s1.2-3.1,2.1-4.4s2.2-2.3,3.7-3.1
				s3.3-1.1,5.3-1.1c1.8,0,3.3,0.3,4.6,1s2.5,1.7,3.5,3.1v-3.6h4v24.9c0,1.1,0,2.1-0.1,3s-0.2,1.8-0.4,2.8s-0.5,1.9-0.9,2.7
				s-0.9,1.5-1.6,2.3s-1.5,1.4-2.4,1.8s-2.1,0.8-3.5,1.1s-2.9,0.4-4.7,0.4H1334.6z"/>
		</g>
		<g id="Group-3" transform="translate(413.000000, 529.000000)">
			<path id="Combined-Shape" class="st3" d="M133.6,108.3c-11,0-19.7-3.5-26.1-10.5S98,81.1,98,68.9c0-11.8,3.1-21.3,9.2-28.7
				s14.2-11.1,24.3-11.2c9.4,0,16.9,3.2,22.4,9.7s8.3,15.1,8.3,25.8c0,0.6,0,1.6,0,3.1s0,2.5,0,3.2h-52.2c0.1,8.6,2.4,15.4,6.7,20.2
				s10.1,7.2,17.4,7.2c8,0,16.1-2.1,24.2-6.4l1.8,9.4C152.3,105.9,143.5,108.3,133.6,108.3z M132.1,39c-5.9,0-10.7,2.1-14.5,6.3
				s-5.9,9.9-6.6,17.2h40.1c0-7.5-1.7-13.3-5.1-17.4S138,39,132.1,39z"/>
			<polygon id="Path" class="st3" points="79,106.5 67,106.5 67,58.6 12,58.6 12,106.5 0,106.5 0,4 12,4 12,48 67,48 67,4 79,4 			
				"/>
			<path id="Path_00000062190702490688513870000013999508193845088410_" class="st3" d="M198.3,107.7c-7.4,0-12.6-2-15.7-6
				S178,90.8,178,81V0.7L189.5,0v76.4c0,3.1,0,5.7,0.1,7.6s0.2,3.8,0.5,5.6s0.6,3.2,1.1,4.1s1.1,1.8,2,2.5s1.9,1.3,3.2,1.5
				s2.7,0.4,4.5,0.4c1.5,0,4.4-0.3,8.7-0.8l0.6,9.2C205.5,107.3,201.6,107.7,198.3,107.7z"/>
			<path id="Path_00000075855221151878344950000000894011861812180896_" class="st3" d="M238.3,107.7c-7.4,0-12.6-2-15.7-6
				S218,90.8,218,81V0.7L229.5,0v76.4c0,3.1,0,5.7,0.1,7.6s0.2,3.8,0.5,5.6s0.6,3.2,1.1,4.1s1.1,1.8,2,2.5s1.9,1.3,3.2,1.5
				s2.7,0.4,4.5,0.4c1.5,0,4.4-0.3,8.7-0.8l0.6,9.2C245.5,107.3,241.6,107.7,238.3,107.7z"/>
			<path id="Combined-Shape_00000020379888664648435010000002590292390651692170_" class="st3" d="M323.4,68.6
				c0,11.8-3.1,21.3-9.4,28.7s-15,11-26.1,11c-10.7,0-19.2-3.7-25.5-11.1S253,80.3,253,68.7c0-11.8,3.2-21.4,9.5-28.7s15-11,26.1-11
				c10.9,0,19.4,3.7,25.6,11S323.4,56.8,323.4,68.6z M266,69.1c0,9,2,16.2,6,21.7s9.8,8.1,17.5,8.1c7.6,0,13.3-2.7,17.2-8.1
				s5.8-12.7,5.8-21.8c0-9.3-1.9-16.6-5.7-21.9s-9.6-8-17.4-8c-7.6,0-13.4,2.7-17.3,8.2S266,59.9,266,69.1z"/>
			<polygon id="Path_00000031929771709005182930000012547072528092884119_" class="st3" points="396.9,106.5 366,4 378.5,4 
				403.9,92.3 429.3,5.9 442.8,5.9 467.4,92.3 493,4 505.6,4 474.2,106.5 461.1,106.5 436.2,20.4 410,106.5 			"/>
			<path id="Combined-Shape_00000011732666564245452930000005844208825633920174_" class="st3" d="M582.4,68.6
				c0,11.8-3.1,21.3-9.4,28.7s-15,11-26.1,11c-10.7,0-19.2-3.7-25.5-11.1S512,80.3,512,68.7c0-11.8,3.2-21.4,9.5-28.7s15-11,26.1-11
				c10.9,0,19.4,3.7,25.6,11S582.4,56.8,582.4,68.6z M524,69.1c0,9,2,16.2,6,21.7s9.8,8.1,17.5,8.1c7.6,0,13.3-2.7,17.2-8.1
				s5.8-12.7,5.8-21.8c0-9.3-1.9-16.6-5.7-21.9s-9.6-8-17.4-8c-7.6,0-13.4,2.7-17.3,8.2S524,59.9,524,69.1z"/>
			<path id="Path_00000150097936014734851660000007044223192156715711_" class="st3" d="M632.8,30c2.1,0,4,0.1,5.7,0.4L638,41.1
				c-2.1-0.4-4-0.6-5.5-0.6c-6.5,0-11.7,2.3-15.8,6.8s-6.1,10.1-6.1,16.7v42.7h-11.6c0-46.7-0.1-72-0.1-76.1h9.6l1.1,13.7
				c2.6-4.3,6-7.8,10.1-10.4S628.2,30,632.8,30z"/>
			<path id="Path_00000015344371118826626550000018189157802943810957_" class="st3" d="M670.3,107.7c-7.4,0-12.6-2-15.7-6
				S650,90.8,650,81V0.7L661.5,0v76.4c0,3.1,0,5.7,0.1,7.6s0.2,3.8,0.5,5.6s0.6,3.2,1.1,4.1s1.1,1.8,2,2.5s1.9,1.3,3.2,1.5
				s2.7,0.4,4.5,0.4c1.5,0,4.4-0.3,8.7-0.8l0.6,9.2C677.5,107.3,673.6,107.7,670.3,107.7z"/>
			<path id="Combined-Shape_00000079480877360313659260000004775580372190086059_" class="st3" d="M742,95.3
				c-2.5,3.8-5.8,6.9-10,9.2s-8.8,3.4-13.9,3.4c-10,0-17.9-3.6-23.6-10.7S686,80.2,686,67.9c0-11.7,2.9-21.2,8.7-28.5
				s13.5-10.9,23.2-10.9c5,0,9.8,1.1,14.2,3.3s7.8,5.1,10,8.8l-0.2-6.6V0.7L753.4,0v106.3h-9.8L742,95.3z M720.2,98.4
				c7.6,0,13.3-2.4,17-7.3s5.6-11.9,5.6-21c0-10.3-1.8-18-5.4-23.2s-9.4-7.8-17.4-7.8c-3.6,0-6.7,0.8-9.4,2.3s-4.9,3.7-6.6,6.4
				s-2.9,5.9-3.8,9.4s-1.3,7.4-1.3,11.6c0,5.9,0.7,11,2.2,15.4s3.8,7.8,7,10.4S715.5,98.4,720.2,98.4z"/>
			<polygon id="Path_00000139985153401900668880000000445254514345119904_" class="st3" points="790.7,3 790.7,12.8 786.8,76.6 
				781.3,76.6 777,12.8 777,3 			"/>
			<path id="Path_00000003786400157757614030000005179371416938386859_" class="st3" d="M775,99.2c0-2.4,0.8-4.6,2.5-6.4
				s3.9-2.7,6.8-2.7c2.9,0,5.2,0.9,6.8,2.7s2.4,4,2.4,6.4s-0.8,4.6-2.4,6.4s-3.9,2.7-6.8,2.7c-2.9,0-5.1-0.9-6.8-2.7
				C775.8,103.7,775,101.6,775,99.2z"/>
		</g>
	</g>
</g>
</svg>
